<svg xmlns="http://www.w3.org/2000/svg" viewBox="0 0 258 82" fill="none">
  <defs>
    <linearGradient id="g" x1="0" y1="0" x2="0" y2="1">
      <stop offset="0%" stop-color="#6366F1"/>
      <stop offset="100%" stop-color="#3730A3"/>
    </linearGradient>
  </defs>
  <!-- Badge -->
  <rect x="1" y="14" width="54" height="54" rx="16" fill="url(#g)"/>
  <!-- V mark -->
  <polyline points="9,35 28,57 47,35" fill="none" stroke="#C7D2FE" stroke-width="7.5" stroke-linejoin="round" stroke-linecap="round"/>
  <!-- Wordmark (paths, no external font dependency) -->
  <path d="M91.08 44.472Q91.08 46.776 89.688 47.208Q86.808 48.216 83.352 48.36Q82.44 52.392 79.752 54.816Q77.064 57.24 73.656 57.24Q70.776 57.24 68.736 55.848Q66.696 54.456 65.64 52.152Q64.584 49.848 64.584 47.16Q64.584 43.512 65.976 40.656Q67.368 37.8 69.816 36.192Q72.264 34.584 75.24 34.584Q78.888 34.584 81.12 37.104Q83.352 39.624 83.736 43.32Q85.992 43.176 89.112 42.36Q89.496 42.264 89.784 42.264Q90.408 42.264 90.744 42.888Q91.08 43.512 91.08 44.472ZM78.216 47.304Q76.728 46.296 75.936 44.664Q75.144 43.032 75.144 41.208Q75.144 40.44 75.288 39.672H75.048Q73.128 39.672 71.856 41.52Q70.584 43.368 70.584 46.728Q70.584 49.368 71.616 50.76Q72.648 52.152 74.04 52.152Q75.576 52.152 76.704 50.904Q77.832 49.656 78.216 47.304Z" fill="#0F172A"/>
  <path d="M87.048 49.176Q87.048 42.936 88.824 37.32Q89.256 35.928 90.24 35.28Q91.224 34.632 93.0 34.632Q93.96 34.632 94.344 34.872Q94.728 35.112 94.728 35.784Q94.728 36.552 94.008 39.24Q93.528 41.16 93.24 42.6Q92.952 44.04 92.76 46.152Q94.344 42.024 96.312 39.432Q98.28 36.84 100.176 35.736Q102.072 34.632 103.656 34.632Q106.776 34.632 106.776 37.752Q106.776 38.376 106.344 40.776Q105.96 42.696 105.96 43.176Q105.96 44.856 107.16 44.856Q108.504 44.856 110.616 42.744Q111.24 42.12 111.912 42.12Q112.536 42.12 112.896 42.672Q113.256 43.224 113.256 44.136Q113.256 45.912 112.296 46.92Q110.952 48.312 109.152 49.296Q107.352 50.28 105.336 50.28Q102.792 50.28 101.472 48.984Q100.152 47.688 100.152 45.48Q100.152 44.76 100.296 44.04Q100.392 43.08 100.392 42.744Q100.392 41.976 99.864 41.976Q99.144 41.976 97.968 43.584Q96.792 45.192 95.64 47.832Q94.488 50.472 93.768 53.4Q93.24 55.656 92.544 56.448Q91.848 57.24 90.36 57.24Q88.536 57.24 87.792 55.32Q87.048 53.4 87.048 49.176Z" fill="#0F172A"/>
  <path d="M131.544 48.456Q131.544 50.376 130.632 51.432Q128.568 53.976 126.12 55.608Q123.672 57.24 120.504 57.24Q110.712 57.24 110.712 43.464Q110.712 41.352 110.856 39.192H108.984Q107.544 39.192 107.04 38.664Q106.536 38.136 106.536 36.984Q106.536 34.296 108.696 34.296H111.432Q112.248 29.016 113.928 24.648Q115.608 20.28 117.984 17.688Q120.36 15.096 123.096 15.096Q125.112 15.096 126.264 16.872Q127.416 18.648 127.416 21.336Q127.416 28.776 121.176 34.296H126.552Q127.32 34.296 127.656 34.632Q127.992 34.968 127.992 35.88Q127.992 39.192 122.568 39.192H116.712Q116.616 41.592 116.616 42.936Q116.616 47.928 117.792 49.944Q118.968 51.96 121.512 51.96Q123.576 51.96 125.16 50.712Q126.744 49.464 128.904 46.968Q129.48 46.296 130.2 46.296Q130.824 46.296 131.184 46.872Q131.544 47.448 131.544 48.456ZM117.192 33.576Q120.024 31.128 121.44 28.08Q122.856 25.032 122.856 22.536Q122.856 19.704 121.8 19.704Q121.08 19.704 120.192 21.504Q119.304 23.304 118.512 26.496Q117.72 29.688 117.192 33.576Z" fill="#0F172A"/>
  <path d="M127.032 49.416Q127.032 45.576 128.808 42.144Q130.584 38.712 133.536 36.624Q136.488 34.536 139.8 34.536Q140.856 34.536 141.216 34.944Q141.576 35.352 141.816 36.408Q142.824 36.216 143.928 36.216Q146.28 36.216 146.28 37.896Q146.28 38.904 145.56 42.696Q144.456 48.216 144.456 50.376Q144.456 51.096 144.816 51.528Q145.176 51.96 145.752 51.96Q146.664 51.96 147.96 50.784Q149.256 49.608 151.464 46.968Q152.04 46.296 152.76 46.296Q153.384 46.296 153.744 46.872Q154.104 47.448 154.104 48.456Q154.104 50.376 153.192 51.432Q151.224 53.88 149.016 55.56Q146.808 57.24 144.744 57.24Q143.16 57.24 141.84 56.16Q140.52 55.08 139.848 53.208Q137.352 57.24 133.56 57.24Q130.584 57.24 128.808 55.08Q127.032 52.92 127.032 49.416ZM138.696 47.832 140.472 39.0Q138.456 39.048 136.752 40.512Q135.048 41.976 134.04 44.376Q133.032 46.776 133.032 49.464Q133.032 50.952 133.632 51.672Q134.232 52.392 135.288 52.392Q136.344 52.392 137.304 51.144Q138.264 49.896 138.696 47.832Z" fill="#0F172A"/>
  <path d="M169.752 48.456Q169.752 50.376 168.84 51.432Q166.776 53.976 164.352 55.608Q161.928 57.24 158.856 57.24Q154.632 57.24 152.592 53.4Q150.552 49.56 150.552 43.464Q150.552 37.608 152.064 30.12Q153.576 22.632 156.528 17.256Q159.48 11.88 163.56 11.88Q165.864 11.88 167.184 14.016Q168.504 16.152 168.504 20.136Q168.504 25.848 165.336 33.384Q162.168 40.92 156.744 48.312Q157.08 50.28 157.848 51.12Q158.616 51.96 159.864 51.96Q161.832 51.96 163.32 50.832Q164.808 49.704 167.112 46.968Q167.688 46.296 168.408 46.296Q169.032 46.296 169.392 46.872Q169.752 47.448 169.752 48.456ZM156.408 41.832Q159.816 36.216 161.832 30.576Q163.848 24.936 163.848 20.28Q163.848 16.632 162.504 16.632Q161.4 16.632 160.008 20.616Q158.616 24.6 157.56 30.504Q156.504 36.408 156.408 41.832Z" fill="#0F172A"/>
  <path d="M168.12 27.912Q168.12 26.232 169.44 25.104Q170.76 23.976 172.728 23.976Q174.504 23.976 175.608 24.84Q176.712 25.704 176.712 27.288Q176.712 29.208 175.464 30.336Q174.216 31.464 172.152 31.464Q170.136 31.464 169.128 30.528Q168.12 29.592 168.12 27.912ZM165.816 49.176Q165.816 47.016 166.368 43.632Q166.92 40.248 167.784 37.32Q168.216 35.784 168.936 35.208Q169.656 34.632 171.24 34.632Q173.688 34.632 173.688 36.264Q173.688 37.464 172.776 41.832Q171.624 47.112 171.624 48.984Q171.624 50.424 172.008 51.192Q172.392 51.96 173.304 51.96Q174.168 51.96 175.464 50.76Q176.76 49.56 178.92 46.968Q179.496 46.296 180.216 46.296Q180.84 46.296 181.2 46.872Q181.56 47.448 181.56 48.456Q181.56 50.376 180.648 51.432Q175.896 57.24 171.768 57.24Q168.648 57.24 167.232 55.032Q165.816 52.824 165.816 49.176Z" fill="#0F172A"/>
</svg>
